<svg id="Capa_1" enable-background="new 0 0 512 512" height="512" viewBox="0 0 512 512" width="512"
    xmlns="http://www.w3.org/2000/svg">
    <g>
        <g>
            <path d="m425.493 481.396h-338.986c-8.533 0-15.451-6.918-15.451-15.451s6.918-15.451 15.451-15.451h338.986c8.533 0 15.451 6.918 15.451 15.451s-6.918 15.451-15.451 15.451z" fill="#838383"/>
        </g>
        <g>
            <path d="m429.78 504.272-99.479-172.303c-4.267-7.39-1.735-16.84 5.655-21.106 7.389-4.267 16.839-1.734 21.106 5.655l99.479 172.303c4.267 7.39 1.735 16.84-5.655 21.106-7.385 4.265-16.837 1.739-21.106-5.655z" fill="#5a5a5a"/>
        </g>
        <g>
            <path d="m61.114 509.927c-7.39-4.267-9.922-13.716-5.655-21.106l99.479-172.303c4.266-7.39 13.716-9.922 21.106-5.655s9.922 13.716 5.655 21.106l-99.479 172.303c-4.266 7.39-13.717 9.922-21.106 5.655z" fill="#5a5a5a"/>
        </g>
        <path d="m129.173 361.144-44.869 77.715c5.536 2.72 11.761 4.253 18.346 4.253h14.88l47.325-81.969h-35.682z" fill="#444"/>
        <path d="m382.827 361.144h-35.682l47.325 81.969h14.88c6.585 0 12.81-1.533 18.346-4.253z" fill="#444"/>
        <path d="m451.013 348.672v-272.693c0-41.962-34.017-75.979-75.979-75.979h-238.068c-41.962 0-75.979 34.017-75.979 75.979v272.693z" fill="#d8e8f0"/>
        <path d="m60.987 331.945v40.305c0 23.011 18.654 41.664 41.664 41.664h306.699c23.01 0 41.664-18.654 41.664-41.664v-40.305z" fill="#0290cf"/>
        <path d="m202.815 71v-25.327c0-3.916 3.175-7.091 7.091-7.091h92.188c3.916 0 7.091 3.175 7.091 7.091v25.327c0 3.916-3.175 7.091-7.091 7.091h-92.188c-3.917 0-7.091-3.175-7.091-7.091z" fill="#9c9c9c"/>
        <path d="m101.509 230.466v-104.007c0-9.511 7.711-17.222 17.222-17.222h274.538c9.511 0 17.222 7.711 17.222 17.222v104.007c0 9.511-7.711 17.222-17.222 17.222h-274.538c-9.512 0-17.222-7.71-17.222-17.222z" fill="#99e6fc"/>
        <path d="m341.603 331.945c0-18.231 14.779-33.009 33.009-33.009h-238.657c18.229.001 33.006 14.779 33.006 33.009 0 18.228-14.776 33.006-33.004 33.008h238.654c-18.229.001-33.008-14.778-33.008-33.008z" fill="#838383"/>
        <circle cx="135.953" cy="331.945" fill="#fec165" r="33.009"/>
        <circle cx="374.612" cy="331.945" fill="#fec165" r="33.009"/>
        <path d="m375.034 0h-40.522c41.962 0 75.979 34.017 75.979 75.979 0 .386.017-11.843.017 272.693h40.506v-272.693c-.001-41.962-34.018-75.979-75.98-75.979z" fill="#bad6e5"/>
        <path d="m410.508 331.945v40.305c0 23.011-18.654 41.664-41.664 41.664h40.506c23.01 0 41.664-18.654 41.664-41.664v-40.305z" fill="#017bae"/>
        <path d="m393.269 109.237h-274.538c-9.511 0-17.222 7.711-17.222 17.222v.297h262.562c9.511 0 17.222 7.71 17.222 17.222v103.71h11.976c9.511 0 17.222-7.711 17.222-17.222v-104.007c0-9.511-7.71-17.222-17.222-17.222z" fill="#62dbfb"/>
    </g>
</svg>