<svg xmlns="http://www.w3.org/2000/svg" viewBox="0 0 24 24" class="pin">
  <defs>
    <style>
      .pin .cls-1 {
        fill: #0288D1
      }
    </style>
  </defs>
  <path fill="#303C42" d="M12,0C7.5888672,0,4,3.5888672,4,8c0,1.3242188,0.3310547,2.637207,0.9604492,3.8017578L11.5625,23.7421875 C11.6503906,23.9013672,11.8178711,24,12,24s0.3496094-0.0986328,0.4375-0.2578125l6.6044922-11.9443359 C19.6689453,10.637207,20,9.3242188,20,8C20,3.5888672,16.4111328,0,12,0z"></path>
  <path class="cls-1" data-class="cls-1" d="M18.1645508,11.3178711L12,22.4667969L5.8378906,11.3222656C5.2895508,10.3076172,5,9.1586914,5,8 c0-3.8598633,3.1401367-7,7-7s7,3.1401367,7,7C19,9.1586914,18.7104492,10.3076172,18.1645508,11.3178711z"></path>
  <circle cx="12" cy="8" r="4" fill="#303C42"></circle>
  <circle cx="12" cy="8" r="3" fill="#FFF"></circle>
  <path d="M10,9.5c0-1.6542969,1.3457031-3,3-3c0.7103271,0,1.3549805,0.2583618,1.8693848,0.6724854 C14.5075684,5.9222412,13.3653564,5,12,5c-1.6542969,0-3,1.3457031-3,3c0,0.9440308,0.4468994,1.7772827,1.1306152,2.3275757 C10.0540161,10.0629883,10,9.7890015,10,9.5z" opacity=".1"></path>
  <linearGradient id="ZXZb4A2tY_TDoLH7do5Zga" x1="3.366" x2="17.868" y1="7.587" y2="14.349" gradientUnits="userSpaceOnUse">
    <stop offset="0" stop-color="#fff" stop-opacity=".2"></stop>
    <stop offset="1" stop-color="#fff" stop-opacity="0"></stop>
  </linearGradient>
  <path fill="url(#ZXZb4A2tY_TDoLH7do5Zga)" d="M12,0C7.5888672,0,4,3.5888672,4,8c0,1.3242188,0.3310547,2.637207,0.9604492,3.8017578 L11.5625,23.7421875C11.6503906,23.9013672,11.8178711,24,12,24s0.3496094-0.0986328,0.4375-0.2578125l6.6044922-11.9443359 C19.6689453,10.637207,20,9.3242188,20,8C20,3.5888672,16.4111328,0,12,0z"></path>
</svg>